<?xml version="1.0" standalone="no"?>
<!DOCTYPE svg PUBLIC "-//W3C//DTD SVG 1.1//EN" "http://www.w3.org/Graphics/SVG/1.1/DTD/svg11.dtd" >
<svg>
<metadata>
Created by FontForge 20100429 at Fri Jan  6 14:10:37 2012
 By www-data
Copyright (c) 2012 by vernon adams. All rights reserved.
</metadata>
<defs>
<font id="Oxygen-Bold" horiz-adv-x="1485" >
  <font-face 
    font-family="Oxygen"
    font-weight="700"
    font-stretch="normal"
    units-per-em="2048"
    panose-1="2 0 8 3 0 0 0 9 0 4"
    ascent="1638"
    descent="-410"
    bbox="-68 -1634 2162 432"
    underline-thickness="119"
    underline-position="-119"
    unicode-range="U+0020-007E"
  />
    <missing-glyph />
    <glyph glyph-name="space" unicode=" " horiz-adv-x="625" 
 />
    <glyph glyph-name="exclam" unicode="!" horiz-adv-x="750" 
d="M492 -1445v251l-64 871h-108l-72 -871v-251h244zM248 23v-256h244v256h-244z" />
    <glyph glyph-name="quotedbl" unicode="&#x22;" horiz-adv-x="719" 
d="M436 -937l-37 -506h206v506h-169zM120 -937l-38 -506h208v506h-170z" />
    <glyph glyph-name="numbersign" unicode="#" horiz-adv-x="1124" 
d="M1087 -1070l-20 173h-159l-65 341h158l-18 176h-171l-86 403h-208l84 -403h-178l-86 403h-194l79 -403h-182l15 -176h199l62 -339h-193l15 -175h210l85 -375h207l-79 375h182l79 -375h191l-73 375h146zM708 -897h-183l-69 341h183z" />
    <glyph glyph-name="dollar" unicode="$" horiz-adv-x="1294" 
d="M623 -1634h103v1835h-103v-1835zM974 -1204c-181 -66 -600 -119 -600 134c0 127 113 149 213 182c0 0 244 64 353 112c146 64 265 163 265 370c0 312 -237 423 -552 429c-215 4 -381 -52 -512 -129l-18 -11l84 -212l26 19c101 71 250 116 428 114
c167 -2 301 -46 301 -209c0 -156 -144 -183 -268 -222c0 0 -229 -56 -330 -103c-126 -59 -229 -151 -229 -334c0 -297 233 -405 534 -410c191 -3 356 39 468 116l17 12l-83 194s-58 -37 -97 -52z" />
    <glyph glyph-name="percent" unicode="%" horiz-adv-x="1985" 
d="M1452 -597c-135 0 -185 102 -185 237c0 134 50 229 183 229s180 -102 180 -236c0 -133 -46 -230 -178 -230zM1453 -760c242 0 363 153 363 394c0 240 -128 398 -369 398c-243 0 -375 -151 -375 -393c0 -244 135 -399 381 -399zM530 -1447c245 0 367 149 375 391v2
c-10 242 -137 394 -380 394c-241 0 -365 -152 -365 -391c0 -240 129 -396 370 -396zM400 46l928 -1491h215l-930 1491h-213zM529 -1284c-132 0 -182 98 -182 232c0 133 48 229 181 229c132 0 183 -98 183 -232c0 -133 -50 -229 -182 -229z" />
    <glyph glyph-name="ampersand" unicode="&#x26;" horiz-adv-x="1665" 
d="M439 -834c-73 -81 -153 -157 -153 -306c0 -233 170 -333 403 -333c171 0 304 59 369 171c24 40 36 87 36 144c0 215 -167 295 -315 372l347 366c58 -62 103 -135 143 -213l173 115c-48 92 -103 174 -170 249l205 217l-219 68l-141 -147c-152 126 -406 193 -664 132
c-195 -46 -342 -162 -342 -403c0 -244 164 -343 328 -432zM350 -428c0 180 133 244 312 244c129 0 227 -43 308 -102l-399 -429c-110 59 -221 125 -221 287zM857 -1137c0 -101 -66 -142 -166 -146c-129 -5 -201 92 -162 219c20 67 68 113 113 157c0 0 104 -50 144 -86
c38 -34 71 -76 71 -144z" />
    <glyph glyph-name="quotesingle" unicode="'" horiz-adv-x="573" 
d="M205 -937l-37 -506h207v506h-170z" />
    <glyph glyph-name="parenleft" unicode="(" horiz-adv-x="645" 
d="M406 221c-140 -228 -270 -480 -273 -846v-1c2 -374 129 -629 270 -864h226l-25 27c-165 261 -292 642 -222 1073c37 228 123 419 223 584l25 27h-224z" />
    <glyph glyph-name="parenright" unicode=")" horiz-adv-x="645" 
d="M601 -626c0 366 -132 618 -273 847h-224l26 -27c164 -258 291 -633 224 -1062c-37 -234 -122 -425 -223 -595l-25 -27h226c141 235 269 490 269 864z" />
    <glyph glyph-name="asterisk" unicode="*" horiz-adv-x="1124" 
d="M987 -545l-197 117l-219 -306l-215 306l-197 -116l265 -293l-363 -123l98 -179l326 149l-29 -349h235l-26 349l321 -148l12 12l88 166l-365 123l246 275z" />
    <glyph glyph-name="plus" unicode="+" 
d="M186 -649h445v-398h208v398h443v189h-445v398h-209v-398h-441z" />
    <glyph glyph-name="comma" unicode="," horiz-adv-x="559" 
d="M415 -214l-170 520h-171l112 -520h229z" />
    <glyph glyph-name="hyphen" unicode="-" horiz-adv-x="883" 
d="M168 -433v-184h548v184h-548z" />
    <glyph glyph-name="period" unicode="." horiz-adv-x="559" 
d="M141 51v-279h276v279h-276z" />
    <glyph glyph-name="slash" unicode="/" horiz-adv-x="780" 
d="M165 215h-208l673 -1666h212z" />
    <glyph glyph-name="zero" unicode="0" horiz-adv-x="1204" 
d="M614 23c-484 0 -589 -446 -537 -931c35 -321 178 -566 537 -566s502 246 537 566c53 485 -54 931 -537 931zM323 -730c3 229 34 437 187 516c57 29 154 30 210 0c178 -93 201 -372 182 -642c-12 -170 -59 -321 -184 -382c-77 -37 -192 -23 -250 26
c-111 94 -146 279 -147 482h2z" />
    <glyph glyph-name="one" unicode="1" horiz-adv-x="1206" 
d="M272 -1298c0 0 199 -102 289 -154h234v1452h-268v-1218c-78 43 -170 86 -255 123v-203z" />
    <glyph glyph-name="two" unicode="2" horiz-adv-x="1223" 
d="M119 -1322c109 -91 244 -153 445 -152c233 2 400 81 479 238c46 93 48 238 11 341c-53 149 -158 247 -259 347l-349 346h623v202h-948v-214l570 -558c62 -69 135 -137 135 -260c0 -158 -104 -227 -268 -226s-262 59 -356 142z" />
    <glyph glyph-name="three" unicode="3" horiz-adv-x="1217" 
d="M96 -1344c126 -86 276 -128 487 -128c210 0 367 78 441 218c25 47 37 101 37 161c-2 179 -89 278 -210 339c147 53 259 153 259 348c0 308 -252 429 -566 429c-188 0 -347 -42 -448 -133l82 -201c98 69 204 119 365 119c171 0 313 -46 313 -213
c0 -234 -256 -224 -491 -233h-27v-215h27c217 -4 431 -6 435 -219c3 -149 -105 -186 -254 -186c-162 0 -268 48 -367 118z" />
    <glyph glyph-name="four" unicode="4" horiz-adv-x="1366" 
d="M1259 -341h-184v341h-233v-341h-738v-181l719 -950h252v925h184v206zM829 -546v-615l-447 614z" />
    <glyph glyph-name="five" unicode="5" horiz-adv-x="1272" 
d="M672 -948c308 6 495 163 495 466c0 340 -227 498 -571 505c-196 4 -348 -62 -451 -149l-16 -13l107 -165s186 98 260 109c240 36 431 -52 429 -285c-1 -173 -108 -265 -289 -265c-103 0 -174 29 -234 71l-9 7l-182 -22l63 -763h829v210h-625l-32 333
c67 -23 137 -41 226 -39z" />
    <glyph glyph-name="six" unicode="6" horiz-adv-x="1217" 
d="M509 -890c106 -35 259 -28 359 10c170 64 284 198 284 424c0 320 -219 479 -543 479c-371 0 -598 -220 -527 -609c47 -259 219 -411 371 -577l264 -289h309zM607 -715c-186 3 -304 88 -304 271c0 178 117 261 297 261c183 0 308 -86 308 -265c0 -175 -118 -270 -301 -267
z" />
    <glyph glyph-name="seven" unicode="7" horiz-adv-x="1227" 
d="M255 0l557 -1246h-718v-206h1007v158l-570 1294h-276z" />
    <glyph glyph-name="eight" unicode="8" horiz-adv-x="1234" 
d="M904 -755c134 66 233 175 233 373c0 289 -227 405 -520 405c-228 0 -399 -79 -479 -230c-27 -51 -41 -109 -41 -176c0 -200 108 -307 248 -372c-126 -60 -221 -157 -221 -340c0 -273 216 -378 493 -378c216 0 379 70 455 212c25 47 38 103 38 166c0 177 -87 278 -206 340
zM617 -192c157 0 267 -67 265 -219c-2 -170 -127 -227 -265 -265c-138 38 -262 95 -265 265c-2 152 108 219 265 219zM617 -1258c-140 0 -257 46 -257 182c0 163 121 211 257 242c136 -31 257 -80 257 -242c0 -136 -117 -182 -257 -182z" />
    <glyph glyph-name="nine" unicode="9" horiz-adv-x="1165" 
d="M640 -563c-47 14 -95 23 -154 23c-302 0 -488 -158 -488 -456c0 -243 136 -379 322 -444c67 -22 140 -33 221 -33c371 -1 597 216 527 605c-47 260 -218 413 -370 579l-265 289h-309zM847 -1009c0 -178 -119 -260 -299 -260c-182 0 -307 86 -307 264
c0 175 119 270 302 267c186 -3 304 -88 304 -271z" />
    <glyph glyph-name="colon" unicode=":" horiz-adv-x="551" 
d="M401 34c0 0 -175 -14 -236 -12h-30l5 -10c8 -86 9 -256 9 -256s175 14 236 12h27s-12 177 -11 259v7zM401 -776c0 0 -175 -15 -236 -13h-27s12 -177 11 -259v-7s175 14 236 12h30l-5 10c-8 92 -9 257 -9 257z" />
    <glyph glyph-name="semicolon" unicode=";" horiz-adv-x="559" 
d="M408 -768c0 0 -175 -14 -236 -12h-27s14 -176 12 -239v-27s174 14 235 12h27s-11 166 -11 240v26zM438 -234l-171 520h-171l112 -520h230z" />
    <glyph glyph-name="less" unicode="&#x3c;" 
d="M1263 -239v208l-1054 -461v-118l1057 -474v209l-762 323z" />
    <glyph glyph-name="equal" unicode="=" 
d="M187 -470h1096v187h-1096v-187zM186 -827h1096v188h-1096v-188z" />
    <glyph glyph-name="greater" unicode="&#x3e;" 
d="M210 -889v-208l1055 487v121l-1060 447v-209l763 -305z" />
    <glyph glyph-name="question" unicode="?" horiz-adv-x="1079" 
d="M738 -1107c3 -210 -323 -207 -466 -127l-79 45l-62 -170l15 -9c88 -59 203 -112 355 -110c263 6 452 106 452 365c0 206 -134 291 -243 392c0 0 -116 87 -122 130v2c-12 23 -9 39 -10 74v133h-219s-23 -211 -3 -260c70 -169 267 -209 354 -359c18 -31 28 -66 28 -106z
M574 -201v179h-206v-179h206z" />
    <glyph glyph-name="at" unicode="@" horiz-adv-x="1901" 
d="M1253 -452c-14 73 -29 171 64 161c182 -19 246 -190 246 -381c0 -352 -236 -509 -591 -517l-3 -3c-263 3 -423 113 -536 266c-67 90 -111 205 -111 360c0 312 157 497 392 583c156 57 399 58 557 5c81 -26 150 -61 209 -104l19 -14l110 121l-20 17
c-165 144 -475 229 -785 172c-350 -64 -591 -258 -652 -601c-95 -529 199 -872 636 -954c479 -90 847 125 943 515c40 165 4 360 -61 466c-76 124 -192 235 -379 238c-112 2 -187 -46 -218 -128c-62 62 -137 114 -258 111c-204 -4 -306 -134 -306 -337
c0 -244 133 -399 307 -482c157 -75 388 -32 529 17l23 7s-85 320 -115 482zM733 -605c-41 115 -39 300 107 291v1c168 -9 215 -151 258 -285c23 -71 36 -154 50 -230c-87 -13 -185 -16 -252 22c-76 43 -132 113 -163 201z" />
    <glyph glyph-name="A" unicode="A" horiz-adv-x="1382" 
d="M18 0l563 -1445h244l563 1445h-250l-167 -444h-539l-166 444h-248zM896 -639l-191 -551l-197 551h388z" />
    <glyph glyph-name="B" unicode="B" horiz-adv-x="1409" 
d="M1314 -419c0 328 -260 419 -592 419h-550v-1444h464c251 1 471 40 572 192c33 50 51 113 51 191c-1 146 -87 232 -194 278c149 53 249 173 249 364zM1004 -1041c3 -209 -192 -209 -399 -210h-165v389l280 -1c154 -2 282 -26 284 -178zM1069 -428
c2 -197 -129 -246 -326 -246h-304v482h251c207 -1 377 -32 379 -236z" />
    <glyph glyph-name="C" unicode="C" horiz-adv-x="1430" 
d="M1238 -1130c-134 -104 -367 -175 -564 -90c-179 77 -303 240 -303 493c0 261 116 427 303 501c196 77 428 13 563 -85l83 203c-197 120 -517 182 -771 78c-264 -109 -453 -334 -453 -698c0 -366 196 -587 462 -694c256 -103 584 -38 763 86z" />
    <glyph glyph-name="D" unicode="D" horiz-adv-x="1606" 
d="M560 -1445c554 3 944 174 944 725c0 503 -340 711 -848 720h-484v-1445h388zM1229 -716c6 -398 -249 -518 -646 -514h-143v1018h235c347 -4 549 -160 554 -504z" />
    <glyph glyph-name="E" unicode="E" horiz-adv-x="1257" 
d="M1080 -859v208h-640v443h716l-18 208h-966v-1445h954l-18 208h-668v378h640z" />
    <glyph glyph-name="F" unicode="F" horiz-adv-x="1155" 
d="M1060 -843v207h-648v636h-240v-1445h929l-20 208h-670v394h649z" />
    <glyph glyph-name="G" unicode="G" horiz-adv-x="1559" 
d="M1250 -1127c-89 -77 -199 -131 -356 -131c-342 0 -519 193 -519 531c0 326 152 529 479 535c116 1 224 -29 302 -64v-327h-361v-198h576v646c-143 85 -297 158 -525 158c-365 0 -589 -185 -694 -453c-70 -178 -70 -418 2 -594c110 -268 342 -449 713 -449
c203 0 355 53 466 151z" />
    <glyph glyph-name="H" unicode="H" horiz-adv-x="1571" 
d="M1126 -645h-684v645h-268v-1452h268v607h684v-607h268v1452h-268v-645z" />
    <glyph glyph-name="I" unicode="I" horiz-adv-x="608" 
d="M438 -1445v1445h-268v-1445h268z" />
    <glyph glyph-name="J" unicode="J" horiz-adv-x="725" 
d="M552 -1446v1007c2 231 -50 386 -226 436c-57 17 -129 26 -216 26h-55v-196s128 0 167 -13c77 -25 89 -100 89 -203v-1056z" />
    <glyph glyph-name="K" unicode="K" horiz-adv-x="1321" 
d="M413 -1444v642l596 -643h304l-632 676l705 769h-306l-581 -663l-86 73v590h-241v-1445z" />
    <glyph glyph-name="L" unicode="L" horiz-adv-x="1135" 
d="M172 -1445h240v1237h682v208h-922v-1445z" />
    <glyph glyph-name="M" unicode="M" horiz-adv-x="1860" 
d="M402 -1025v1025h-230v-1445h262l502 1029l497 -1029h255v1445h-232v-1017l-409 856h-226z" />
    <glyph glyph-name="N" unicode="N" horiz-adv-x="1589" 
d="M1417 0h-247l-734 -1052l-39 -63v1115h-225v-1445h241l735 1055l43 67v-1122h225z" />
    <glyph glyph-name="O" unicode="O" horiz-adv-x="1698" 
d="M642 -236c114 57 300 57 414 0c165 -83 271 -245 271 -481c0 -239 -106 -409 -269 -495c-114 -60 -304 -61 -418 0c-164 87 -269 256 -269 495c0 236 107 399 271 481zM1154 -33c-179 75 -432 75 -610 0c-261 -110 -448 -330 -448 -689c0 -360 186 -586 448 -695
c179 -75 431 -75 610 0c263 110 448 334 448 695c0 358 -187 580 -448 689z" />
    <glyph glyph-name="P" unicode="P" horiz-adv-x="1325" 
d="M666 -1445c266 1 475 66 572 236c59 104 61 286 2 393c-93 169 -287 253 -546 253h-282v563h-240v-1445h494zM1053 -1006c0 -188 -170 -231 -365 -231h-276l1 472h301c186 -5 339 -61 339 -241z" />
    <glyph glyph-name="Q" unicode="Q" horiz-adv-x="1698" 
d="M1596 -720c0 370 -167 595 -440 699c59 109 139 201 227 280l18 17l-145 156l-19 -18c-113 -112 -222 -244 -296 -396c-413 30 -682 -138 -792 -439c-65 -177 -65 -429 -1 -607c101 -275 328 -446 700 -446c373 0 600 171 700 448c32 92 48 195 48 306zM1342 -730
c0 -329 -163 -528 -493 -528c-331 0 -493 198 -493 528c0 332 159 537 493 537s493 -205 493 -537z" />
    <glyph glyph-name="R" unicode="R" horiz-adv-x="1425" 
d="M1299 -1045c0 216 -121 322 -289 373c50 47 99 97 129 163l229 510l-250 1l-223 -433c-35 -69 -74 -126 -125 -176c-107 -14 -357 -8 -357 -8v615h-241v-1445l475 2c347 3 652 53 652 398zM1054 -1040c0 -168 -147 -196 -320 -196h-320v416h276c194 -2 364 -30 364 -220z
" />
    <glyph glyph-name="S" unicode="S" horiz-adv-x="1294" 
d="M974 -1204c-181 -66 -600 -119 -600 134c0 127 113 149 213 182c0 0 244 64 353 112c146 64 265 163 265 370c0 312 -237 423 -552 429c-215 4 -381 -52 -512 -129l-18 -11l84 -212l26 19c101 71 250 116 428 114c167 -2 301 -46 301 -209c0 -156 -144 -183 -268 -222
c0 0 -229 -56 -330 -103c-126 -59 -229 -151 -229 -334c0 -297 233 -405 534 -410c191 -3 356 39 468 116l17 12l-83 194s-58 -37 -97 -52z" />
    <glyph glyph-name="T" unicode="T" horiz-adv-x="1202" 
d="M35 -1237v-208h1144v208h-438v1237h-268v-1237h-438z" />
    <glyph glyph-name="U" unicode="U" horiz-adv-x="1513" 
d="M757 -192c247 0 352 -112 352 -359v-894h241v905c0 384 -207 563 -593 563c-388 1 -592 -179 -593 -563v-905h241v894c-7 247 105 359 352 359z" />
    <glyph glyph-name="V" unicode="V" horiz-adv-x="1368" 
d="M634 -415l55 157l446 -1187h249l-574 1445h-248l-570 -1445h260z" />
    <glyph glyph-name="W" unicode="W" horiz-adv-x="2167" 
d="M1211 -1444l352 1145c101 -388 239 -745 346 -1127l5 -19h248l-466 1445h-263l-343 -1140l-394 1140h-260l-416 -1445h251l304 1136c118 -386 274 -740 400 -1118l6 -18z" />
    <glyph glyph-name="X" unicode="X" horiz-adv-x="1337" 
d="M-6 0l547 -737l-510 -708h284l383 562l403 -562h266l-522 708l530 737h-282l-411 -592l-416 592h-272z" />
    <glyph glyph-name="Y" unicode="Y" horiz-adv-x="1311" 
d="M1351 -1445l-557 874v571h-256v-571l-544 -874h261l412 684l417 -684h267z" />
    <glyph glyph-name="Z" unicode="Z" horiz-adv-x="1257" 
d="M1197 -1445v150l-838 1087h830v208h-1146v-165l821 -1072h-788v-208h1121z" />
    <glyph glyph-name="bracketleft" unicode="[" horiz-adv-x="645" 
d="M574 87v172h-396v-1748h396v172h-155v1404h155z" />
    <glyph glyph-name="backslash" unicode="\" horiz-adv-x="770" 
d="M868 119h-212l-724 -1570h214z" />
    <glyph glyph-name="bracketright" unicode="]" horiz-adv-x="645" 
d="M178 259v-172h155v-1404h-155v-172h396v1748h-396z" />
    <glyph glyph-name="asciicircum" unicode="^" 
d="M678 -1432h136l511 882h-204l-377 -646l-365 646h-205z" />
    <glyph glyph-name="underscore" unicode="_" horiz-adv-x="1049" 
d="M1049 145v178h-1053v-178h1053z" />
    <glyph glyph-name="grave" unicode="`" horiz-adv-x="612" 
d="M248 -1506l223 330h-198l-324 -330h299z" />
    <glyph glyph-name="a" unicode="a" horiz-adv-x="1165" 
d="M630 -1094c251 3 447 73 447 322v772h-184l-30 -73c-110 50 -224 96 -384 96c-211 0 -360 -95 -360 -302c0 -307 325 -312 636 -318h73v-144c-2 -127 -61 -162 -193 -164c-166 -2 -294 42 -397 99l-53 -189c119 -57 263 -101 445 -99zM359 -302c0 107 59 146 171 146
c123 0 208 -37 298 -70v-219s-296 2 -354 25c-60 23 -115 46 -115 118z" />
    <glyph glyph-name="b" unicode="b" horiz-adv-x="1298" 
d="M100 -1c7 -496 3 -1505 3 -1505h249v565c80 -89 190 -157 355 -153c294 6 449 179 501 420c64 296 -64 549 -270 648c-66 31 -142 49 -231 49c-162 1 -277 -64 -357 -147l-2 123h-248zM376 -697c-32 88 -31 234 0 323c51 146 217 256 402 182c124 -50 202 -167 202 -344
c0 -176 -77 -296 -202 -344c-190 -74 -349 37 -402 183z" />
    <glyph glyph-name="c" unicode="c" horiz-adv-x="1110" 
d="M1065 -136c-139 132 -405 209 -638 123c-207 -76 -353 -243 -353 -524c0 -279 149 -444 354 -521c138 -52 292 -48 432 2c73 26 140 66 203 120l-121 166c-60 -78 -164 -133 -291 -133c-211 0 -326 142 -326 364s106 371 318 371c129 0 233 -56 300 -132z" />
    <glyph glyph-name="d" unicode="d" horiz-adv-x="1298" 
d="M1223.01 -1c-6.99902 -496 -3 -1505 -3 -1505h-248.984v565c-79.9951 -89 -189.988 -157 -354.979 -153c-293.981 6 -448.973 179 -500.969 420c-63.9961 296 63.9961 549 269.983 648c65.9951 31 141.991 49 230.985 49c161.99 1 276.983 -64 356.979 -147l2 123
h247.984zM947.023 -697c31.998 88 30.998 234 0 323c-50.9971 146 -216.987 256 -401.976 182c-123.993 -50 -201.988 -167 -201.988 -344c0 -176 76.9951 -296 201.988 -344c189.988 -74 348.979 37 401.976 183z" />
    <glyph glyph-name="e" unicode="e" horiz-adv-x="1178" 
d="M633 -1094c360 0 518 242 501 622h-806c29 181 121 302 331 304c154 2 266 -52 343 -122l101 163c-108 99 -257 152 -467 150c-282 -3 -449 -144 -526 -351c-50 -134 -49 -291 2 -422c79 -201 246 -344 521 -344zM896 -645c-20 -151 -91 -258 -260 -258
c-176 0 -264 112 -299 258h559z" />
    <glyph glyph-name="f" unicode="f" horiz-adv-x="725" 
d="M589 -1330c-132 -8 -135 97 -132 225v39h234v155h-234v911h-249v-911h-171v-155h171s3 -151 11 -211c26 -185 149 -255 370 -252h101v199h-101z" />
    <glyph glyph-name="g" unicode="g" horiz-adv-x="1298" 
d="M557 -1094c165 0 275 64 355 153v-125h249v934c7 414 -239 563 -653 558h-178v-205s274 6 374 -15c153 -33 234 -134 210 -330c-79 73 -184 128 -337 125c-304 -5 -472 -167 -522 -419c-65 -329 93 -570 344 -654c48 -16 101 -22 158 -22zM603 -190
c203 0 312 -142 312 -356s-109 -357 -313 -357s-318 143 -318 357c0 173 80 283 202 334c38 16 77 22 117 22z" />
    <glyph glyph-name="h" unicode="h" horiz-adv-x="1260" 
d="M738 -1045c273 2 390 168 390 439v606h-233l1 -508c2 -182 -10 -342 -193 -336c-156 5 -260 81 -308 194v650h-233v-1487h233v566c81 -77 185 -125 343 -124z" />
    <glyph glyph-name="i" unicode="i" horiz-adv-x="557" 
d="M436 -1066v1066h-249v-1066h249zM436 -1506v248h-249v-248h249z" />
    <glyph glyph-name="j" unicode="j" horiz-adv-x="518" 
d="M-41 120c0 0 89 -3 117 -11c79 -24 84 -105 85 -211v-964h249v900c2 231 -39 398 -208 458c-55 19 -125 31 -212 31h-31v-203zM410 -1506v248h-249v-248h249z" />
    <glyph glyph-name="k" unicode="k" horiz-adv-x="1186" 
d="M1213 -1066l-525 435l511 631h-295l-413 -514l-81 59v455h-248l1 -1505h248v835l489 -396h313z" />
    <glyph glyph-name="l" unicode="l" horiz-adv-x="639" 
d="M411 -401c-3 128 0 233 132 225h25v199h-25c-227 3 -344 -76 -370 -269c-7 -58 -11 -125 -11 -200v-1060h249v1105z" />
    <glyph glyph-name="m" unicode="m" horiz-adv-x="1954" 
d="M1415 -903c-159 5 -255 100 -298 224v679h-249v-530c-1 -189 6 -379 -185 -373c-159 5 -255 98 -298 222v681h-249s2 -715 -3 -1066h233l8 157c79 -107 177 -184 354 -185c174 -1 279 77 337 193c88 -113 202 -193 395 -193c277 0 389 183 389 460v634h-249v-530
c-1 -189 6 -379 -185 -373z" />
    <glyph glyph-name="n" unicode="n" horiz-adv-x="1251" 
d="M748 -1094c282 0 399 180 399 460v634h-249v-530c1 -195 2 -380 -195 -373c-166 6 -271 95 -318 222v681h-249s2 -715 -3 -1066h233l8 157c84 -107 190 -185 374 -185z" />
    <glyph glyph-name="o" unicode="o" horiz-adv-x="1278" 
d="M325 -1010c104 -71 320 -112 487 -62c236 71 386 248 386 542c0 255 -127 421 -311 506c-133 61 -362 59 -496 0c-216 -96 -358 -334 -296 -645c30 -152 117 -264 230 -341zM639 -168c206 0 316 -145 316 -362c0 -179 -77 -295 -200 -350c-126 -55 -270 -1 -333 70
c-57 64 -101 157 -99 280c4 217 110 362 316 362z" />
    <glyph glyph-name="p" unicode="p" horiz-adv-x="1298" 
d="M707 23c-162 1 -277 -64 -357 -147l-2 534h-246l1 -1476h249v125c80 -89 190 -157 355 -153c294 6 449 179 501 420c64 296 -64 549 -270 648c-66 31 -142 49 -231 49zM376 -697c-32 88 -31 234 0 323c51 146 217 256 402 182c124 -50 202 -167 202 -344
c0 -176 -77 -296 -202 -344c-190 -74 -349 37 -402 183z" />
    <glyph glyph-name="q" unicode="q" horiz-adv-x="1298" 
d="M618.043 23c161.99 1 276.983 -64 356.979 -147l2 534h245.984l-1 -1476h-248.984v125c-79.9951 -89 -189.988 -157 -354.979 -153c-293.981 6 -448.973 179 -500.969 420c-63.9961 296 63.9961 549 269.983 648c65.9951 31 141.991 49 230.985 49zM949.023 -697
c31.998 88 30.998 234 0 323c-50.9971 146 -216.987 256 -401.976 182c-123.993 -50 -201.988 -167 -201.988 -344c0 -176 76.9951 -296 201.988 -344c189.988 -74 348.979 37 401.976 183z" />
    <glyph glyph-name="r" unicode="r" horiz-adv-x="750" 
d="M387 -925c63 -104 172 -194 345 -162v206c-34 -10 -66 -15 -96 -15c-169 0 -237 132 -237 304v592h-249s3 -716 -3 -1066h233z" />
    <glyph glyph-name="s" unicode="s" horiz-adv-x="1067" 
d="M540 -177c120 -3 203 -10 203 -116c0 -91 -97 -102 -175 -124c0 0 -164 -35 -238 -65c-109 -44 -198 -114 -198 -265c0 -224 189 -301 417 -301c155 0 268 29 361 91l16 11l-66 182l-26 -16c-66 -41 -166 -67 -279 -67c-116 0 -233 39 -182 149c22 46 87 52 147 66
c0 0 181 36 260 68c109 44 195 115 195 267c0 234 -181 315 -419 318c-180 2 -333 -39 -428 -120l-13 -11l69 -194l28 25c70 62 189 105 328 102z" />
    <glyph glyph-name="t" unicode="t" horiz-adv-x="797" 
d="M456 -401c-3 128 0 233 132 225h111v199h-111c-221 2 -343 -67 -370 -252c-7 -55 -11 -117 -11 -187v-495h-164v-155h164v-330l249 -56v386h244v155h-244v510z" />
    <glyph glyph-name="u" unicode="u" horiz-adv-x="1208" 
d="M625 -188c151 0 245 -83 245 -232v-646h249v650c-11 293 -197 439 -494 439c-232 0 -387 -96 -459 -258c-23 -54 -35 -114 -35 -181v-650h249v646c6 149 94 232 245 232z" />
    <glyph glyph-name="v" unicode="v" horiz-adv-x="1186" 
d="M480 0l-439 -1066h259l308 791l305 -791h255l-444 1066h-244z" />
    <glyph glyph-name="w" unicode="w" horiz-adv-x="1806" 
d="M1149 -2l-230 -768l-295 769h-217l-364 -1065h252l228 760l291 -760h222l230 755l270 -755h248l-418 1066z" />
    <glyph glyph-name="x" unicode="x" horiz-adv-x="1149" 
d="M39 0l405 -534l-386 -532h278l266 387l283 -387h261l-384 528l396 538h-275l-281 -394l-291 394h-272z" />
    <glyph glyph-name="y" unicode="y" horiz-adv-x="1141" 
d="M606 -261l290 -805h257l-427 1060c-54 273 -251 396 -582 393h-22v-202s113 -2 158 -11c114 -22 183 -85 193 -210l-444 -1030h263z" />
    <glyph glyph-name="z" unicode="z" horiz-adv-x="1012" 
d="M629 -872h-558v-194h865v151l-581 722h597v193h-907v-155z" />
    <glyph glyph-name="braceleft" unicode="{" horiz-adv-x="733" 
d="M283 -1215c-1 -217 142 -287 358 -286h25v176s-82 3 -104 11c-64 24 -55 106 -55 196v210c0 128 -48 218 -128 268c81 50 128 140 128 267c0 0 -3 221 2 321c4 76 47 99 132 97h25v176h-25c-216 1 -358 -69 -358 -286v-255c-2 -111 1 -224 -108 -227h-89v-186h89
c109 -3 108 -116 108 -227v-255z" />
    <glyph glyph-name="bar" unicode="|" horiz-adv-x="516" 
d="M152 280v-1769h214v1769h-214z" />
    <glyph glyph-name="braceright" unicode="}" horiz-adv-x="733" 
d="M451 -65c1 217 -142 287 -358 286h-25v-176s82 -3 104 -11c64 -25 55 -105 55 -196v-210c0 -128 48 -218 128 -268c-81 -50 -128 -140 -128 -267c0 0 3 -221 -2 -321c-4 -76 -47 -99 -132 -97h-25v-176h25c216 -1 358 69 358 286v255c2 111 -1 224 108 227h89v186h-89
c-109 3 -108 116 -108 227v255z" />
    <glyph glyph-name="asciitilde" unicode="~" 
d="M979 -385c-205 1 -282 -132 -477 -141c0 0 -46 5 -64 12c-50 20 -83 58 -98 111l-6 31l-156 -69s19 -75 39 -111c52 -91 140 -157 282 -157c181 0 293 88 432 131c110 34 172 -40 196 -126l6 -26l166 51s-21 81 -41 121c-49 98 -133 172 -279 173z" />
  </font>
</defs>
</svg>
