<?xml version="1.0" encoding="UTF-8" standalone="no"?>
<!-- Created with Inkscape (http://www.inkscape.org/) -->

<svg
   xmlns:dc="http://purl.org/dc/elements/1.1/"
   xmlns:cc="http://creativecommons.org/ns#"
   xmlns:rdf="http://www.w3.org/1999/02/22-rdf-syntax-ns#"
   xmlns:svg="http://www.w3.org/2000/svg"
   xmlns="http://www.w3.org/2000/svg"
   xmlns:sodipodi="http://sodipodi.sourceforge.net/DTD/sodipodi-0.dtd"
   xmlns:inkscape="http://www.inkscape.org/namespaces/inkscape"
   width="410.448"
   height="410.55551"
   id="svg2"
   version="1.1"
   inkscape:version="0.48.3.1 r9886"
   sodipodi:docname="link.svg">
  <defs
     id="defs4" />
  <sodipodi:namedview
     id="base"
     pagecolor="#ffffff"
     bordercolor="#666666"
     borderopacity="1.0"
     inkscape:pageopacity="0.0"
     inkscape:pageshadow="2"
     inkscape:zoom="1.03"
     inkscape:cx="247.66961"
     inkscape:cy="183.11417"
     inkscape:document-units="px"
     inkscape:current-layer="layer1"
     showgrid="false"
     showguides="true"
     inkscape:guide-bbox="true"
     inkscape:window-width="1024"
     inkscape:window-height="718"
     inkscape:window-x="-2"
     inkscape:window-y="-3"
     inkscape:window-maximized="1"
     fit-margin-top="0"
     fit-margin-left="0"
     fit-margin-right="0"
     fit-margin-bottom="0" />
  <metadata
     id="metadata7">
    <rdf:RDF>
      <cc:Work
         rdf:about="">
        <dc:format>image/svg+xml</dc:format>
        <dc:type
           rdf:resource="http://purl.org/dc/dcmitype/StillImage" />
        <dc:title></dc:title>
      </cc:Work>
    </rdf:RDF>
  </metadata>
  <g
     inkscape:label="Layer 1"
     inkscape:groupmode="layer"
     id="layer1"
     transform="translate(-125.71875,-350.38199)">
    <g
       id="g3980">
      <path
         inkscape:connector-curvature="0"
         id="rect2987"
         d="m 203.60587,407.98205 c -43.15842,0 -77.88712,34.75638 -77.88712,77.91481 l 0,197.12584 c 0,43.15842 34.7287,77.9148 77.88712,77.9148 l 197.15352,0 c 43.15843,0 77.91481,-34.75638 77.91481,-77.9148 l 0,-151.17964 -28.95165,31.22129 0,122.08958 c 0,26.6968 -21.49137,48.18816 -48.18816,48.18816 l -199.67226,0 c -26.69679,0 -48.18816,-21.49136 -48.18816,-48.18816 l 0,-199.69993 c 0,-26.6968 21.49137,-48.18816 48.18816,-48.18816 l 128.06814,0 27.76147,-29.28379 -154.08587,0 z"
         style="fill:#0068c6;fill-opacity:1" />
      <path
         sodipodi:nodetypes="cccc"
         inkscape:connector-curvature="0"
         id="rect3872"
         d="m 304.21053,350.38199 231.95623,0 -0.0226,222.82603 c 0,0 -81.64714,-72.79364 -231.93363,-222.82603 z"
         style="fill:#0068c6;fill-opacity:1;stroke-width:10;stroke-miterlimit:4" />
      <path
         inkscape:connector-curvature="0"
         id="path3914"
         d="M 244.17822,546.81763 371.90099,412.16416 476.85149,515.13446 350.11881,651.76812 z"
         style="fill:#0068c6;fill-opacity:1;stroke:none" />
    </g>
  </g>
</svg>
