<?xml version="1.0" encoding="UTF-8" standalone="no"?>
<!-- Created with Inkscape (http://www.inkscape.org/) -->

<svg
   xmlns:dc="http://purl.org/dc/elements/1.1/"
   xmlns:cc="http://creativecommons.org/ns#"
   xmlns:rdf="http://www.w3.org/1999/02/22-rdf-syntax-ns#"
   xmlns:svg="http://www.w3.org/2000/svg"
   xmlns="http://www.w3.org/2000/svg"
   xmlns:sodipodi="http://sodipodi.sourceforge.net/DTD/sodipodi-0.dtd"
   xmlns:inkscape="http://www.inkscape.org/namespaces/inkscape"
   width="580"
   height="580"
   id="svg2"
   version="1.1"
   inkscape:version="0.48.3.1 r9886"
   sodipodi:docname="新建文档 1">
  <defs
     id="defs4" />
  <sodipodi:namedview
     id="base"
     pagecolor="#ffffff"
     bordercolor="#666666"
     borderopacity="1.0"
     inkscape:pageopacity="0.0"
     inkscape:pageshadow="2"
     inkscape:zoom="0.71"
     inkscape:cx="284.71875"
     inkscape:cy="292.72365"
     inkscape:document-units="px"
     inkscape:current-layer="layer1"
     showgrid="false"
     fit-margin-top="0"
     fit-margin-left="0"
     fit-margin-right="0"
     fit-margin-bottom="0"
     inkscape:window-width="1024"
     inkscape:window-height="718"
     inkscape:window-x="-2"
     inkscape:window-y="-3"
     inkscape:window-maximized="1" />
  <metadata
     id="metadata7">
    <rdf:RDF>
      <cc:Work
         rdf:about="">
        <dc:format>image/svg+xml</dc:format>
        <dc:type
           rdf:resource="http://purl.org/dc/dcmitype/StillImage" />
        <dc:title></dc:title>
      </cc:Work>
    </rdf:RDF>
  </metadata>
  <g
     inkscape:label="Layer 1"
     inkscape:groupmode="layer"
     id="layer1"
     transform="translate(-90.281248,-278.65625)">
    <path
       style="fill:#0068c6;fill-opacity:1;stroke:none"
       d="m 175.22028,363.59528 c -113.252043,113.25205 -113.252043,296.86989 0,410.12194 113.25205,113.25204 296.86989,113.25204 410.12194,0 113.25204,-113.25205 113.25204,-296.86989 0,-410.12194 -113.25205,-113.25204 -296.86989,-113.25204 -410.12194,0 z m 42.22754,45.45371 c 21.82535,-21.82535 56.97286,-21.82535 78.79821,0 l 75.32897,75.32897 77.51658,-76.85367 c 21.92143,-21.72885 57.06936,-21.56787 78.79821,0.35356 21.72885,21.92142 21.58997,57.04726 -0.33146,78.77611 l -77.18512,76.52221 82.24536,82.24536 c 21.82535,21.82535 21.82535,56.97286 0,78.79821 -21.82536,21.82535 -56.97286,21.82535 -78.79821,0 l -82.59892,-82.59891 -81.07421,80.36711 c -21.92142,21.72885 -57.06936,21.56787 -78.79821,-0.35356 -21.72885,-21.92142 -21.58997,-57.04726 0.33146,-78.77611 l 80.74275,-80.03565 -74.97541,-74.97542 c -21.82536,-21.82535 -21.82536,-56.97286 0,-78.79821 z"
       id="path2985"
       inkscape:connector-curvature="0" />
  </g>
</svg>
