<?xml version="1.0" encoding="UTF-8" standalone="no"?>
<!-- Created with Inkscape (http://www.inkscape.org/) -->

<svg
   xmlns:dc="http://purl.org/dc/elements/1.1/"
   xmlns:cc="http://creativecommons.org/ns#"
   xmlns:rdf="http://www.w3.org/1999/02/22-rdf-syntax-ns#"
   xmlns:svg="http://www.w3.org/2000/svg"
   xmlns="http://www.w3.org/2000/svg"
   xmlns:sodipodi="http://sodipodi.sourceforge.net/DTD/sodipodi-0.dtd"
   xmlns:inkscape="http://www.inkscape.org/namespaces/inkscape"
   width="634.3125"
   height="1268.5601"
   id="svg2"
   version="1.1"
   inkscape:version="0.48.3.1 r9886"
   sodipodi:docname="g+.svg">
  <defs
     id="defs4" />
  <sodipodi:namedview
     id="base"
     pagecolor="#ffffff"
     bordercolor="#666666"
     borderopacity="1.0"
     inkscape:pageopacity="0.0"
     inkscape:pageshadow="2"
     inkscape:zoom="0.1"
     inkscape:cx="-1477.0291"
     inkscape:cy="941.99662"
     inkscape:document-units="px"
     inkscape:current-layer="layer1"
     showgrid="false"
     fit-margin-top="0"
     fit-margin-left="0"
     fit-margin-right="0"
     fit-margin-bottom="0"
     inkscape:window-width="1024"
     inkscape:window-height="718"
     inkscape:window-x="-2"
     inkscape:window-y="-3"
     inkscape:window-maximized="1" />
  <metadata
     id="metadata7">
    <rdf:RDF>
      <cc:Work
         rdf:about="">
        <dc:format>image/svg+xml</dc:format>
        <dc:type
           rdf:resource="http://purl.org/dc/dcmitype/StillImage" />
        <dc:title />
      </cc:Work>
    </rdf:RDF>
  </metadata>
  <g
     inkscape:label="Layer 1"
     inkscape:groupmode="layer"
     id="layer1"
     transform="translate(-76.84375,503.6225)">
    <path
       style="fill:#00407a;fill-opacity:1;stroke:none"
       d="m 394,130.65625 c -66.78522,0 -128.73441,20.65224 -179.84375,55.90625 9.90878,-4.55544 19.96549,-8.02523 30.1875,-10.34375 23.82811,-4.71567 46.18133,-7.06215 67.03125,-7.0625 l 157.125,0 -48.78125,27.5625 -47.28125,0 c 4.96395,2.97885 10.54444,7.3227 16.75,13.03125 5.95678,5.95737 11.79085,13.28165 17.5,21.96875 5.46034,8.19124 10.31135,17.86201 14.53125,29.03125 3.47464,11.16974 5.18718,24.20131 5.1875,39.09375 -0.49674,27.30341 -7.06029,49.14948 -19.71875,65.53125 -6.20557,7.9429 -12.76913,15.26718 -19.71875,21.96875 -7.69482,6.70182 -15.90662,13.51895 -24.59375,20.46875 -4.96447,4.71611 -9.56191,10.04303 -13.78125,16 -4.96446,6.20536 -7.43773,13.40286 -7.4375,21.59375 -2.3e-4,7.94282 2.47304,14.53762 7.4375,19.75 4.21934,4.96427 8.34087,9.30812 12.3125,13.03125 l 27.53125,21.21875 c 17.12627,13.15519 32.15521,27.67697 45.0625,43.5625 12.16201,16.13368 18.47198,37.21901 18.96875,63.28125 -3.5e-4,36.98333 -16.74183,69.76806 -50.25,98.3125 -27.45359,23.33521 -64.52383,37.76186 -111.1875,43.28125 32.28769,11.07816 66.92363,17.09375 102.96875,17.09375 175.15316,0 317.15625,-142.00309 317.15625,-317.15625 0,-175.15316 -142.00309,-317.125 -317.15625,-317.125 z m -130.65625,63.8125 c -21.34629,0.49674 -39.10208,8.80409 -53.25,24.9375 -11.91423,16.87864 -17.62151,35.74427 -17.125,56.59375 -9e-5,27.55165 7.95814,56.2461 23.84375,86.03125 7.69443,13.89996 17.61878,25.66364 29.78125,35.34375 12.16219,9.68034 26.05003,14.53135 41.6875,14.53125 20.84953,-0.74453 38.22496,-7.94203 52.125,-21.59375 8.68715,-9.6801 14.26764,-19.60445 16.75,-29.78125 1.48901,-10.17649 2.24975,-18.73742 2.25,-25.6875 C 359.406,304.81041 351.44777,274.53021 335.5625,244 328.11594,229.35583 318.31838,217.43411 306.15625,208.25 293.74551,199.56293 279.4773,194.96549 263.34375,194.46875 z M 137.25,261.65625 c -37.962187,52.27838 -60.40625,116.57529 -60.40625,186.125 0,48.50053 10.911288,94.45819 30.375,135.5625 8.93216,-13.04189 22.12438,-24.75319 39.59375,-35.15625 24.82105,-14.14805 50.88418,-23.5965 78.1875,-28.3125 27.05487,-3.97138 49.50363,-6.19108 67.375,-6.6875 -5.70904,-7.19811 -10.78237,-14.90277 -15.25,-23.09375 -5.2126,-7.94272 -7.81266,-17.48671 -7.8125,-28.65625 -1.6e-4,-6.70164 0.9829,-12.28213 2.96875,-16.75 1.73731,-4.71594 3.35431,-9.05979 4.84375,-13.03125 -8.68755,0.99293 -16.86811,1.46883 -24.5625,1.46875 -40.70673,-0.49634 -71.74767,-13.27433 -93.09375,-38.34375 -22.33903,-23.3317 -33.50002,-50.50469 -33.5,-81.53125 -1e-5,-18.00353 3.77857,-35.19375 11.28125,-51.59375 z m 394,43.6875 12.34375,0.0312 c 7.86537,0.029 14.15402,6.38463 14.125,14.25 l -0.25,67.34375 65.21875,0 c 7.86543,0 14.1875,6.32207 14.1875,14.1875 l 0,12.34375 c 0,7.86543 -6.32207,14.1875 -14.1875,14.1875 l -65.34375,0 -0.25,64.96875 c -0.029,7.86537 -6.38463,14.15402 -14.25,14.125 L 530.5,506.75 c -7.86537,-0.029 -14.18527,-6.38463 -14.15625,-14.25 l 0.25,-64.8125 -66.90625,0 c -7.86543,0 -14.21875,-6.32207 -14.21875,-14.1875 l 0,-12.34375 c 0,-7.86543 6.35332,-14.1875 14.21875,-14.1875 l 67.0625,0 L 517,319.5 c 0.029,-7.86537 6.38463,-14.18527 14.25,-14.15625 z m -234.8125,228.875 c -5.30558,-10e-6 -14.11993,0.53929 -26.40625,1.65625 -16.13387,2.23388 -32.62177,5.84825 -49.5,10.8125 -3.97149,1.48923 -9.55198,3.70893 -16.75,6.6875 -7.19821,3.2267 -14.5225,7.82414 -21.96875,13.78125 -7.19819,6.20522 -13.28584,13.90987 -18.25,23.09375 -5.70891,9.68015 -8.56255,21.34829 -8.5625,35 -5e-5,26.80667 12.39757,48.90631 37.21875,66.28125 23.57995,17.37459 55.85752,26.28462 96.8125,26.78125 36.73503,-0.49663 64.79553,-8.4236 84.15625,-23.8125 18.86376,-15.14104 28.28095,-34.64063 28.28125,-58.46875 -3e-4,-19.36057 -6.43706,-36.22884 -19.34375,-50.625 -13.65187,-13.65167 -35.02204,-30.39315 -64.0625,-50.25 -4.96443,-0.49644 -10.7985,-0.75002 -17.5,-0.75 -0.99289,-0.12411 -2.35647,-0.1875 -4.125,-0.1875 z"
       id="path2985"
       inkscape:connector-curvature="0" />
    <path
       style="fill:#0068c6;fill-opacity:1;stroke:none"
       d="m 394.00266,-503.38137 c -66.78522,0 -128.73441,20.65224 -179.84375,55.90625 9.90878,-4.55544 19.96549,-8.02523 30.1875,-10.34375 23.82811,-4.71567 46.18133,-7.06215 67.03125,-7.0625 l 157.125,0 -48.78125,27.5625 -47.28125,0 c 4.96395,2.97885 10.54444,7.3227 16.75,13.03125 5.95678,5.95737 11.79085,13.28165 17.5,21.96875 5.46034,8.19124 10.31135,17.86201 14.53125,29.03125 3.47464,11.16974 5.18718,24.20131 5.1875,39.09375 -0.49674,27.30342 -7.06029,49.14949 -19.71875,65.53126 -6.20557,7.9429 -12.76913,15.26718 -19.71875,21.96875 -7.69482,6.70182 -15.90662,13.51895 -24.59375,20.46875 -4.96447,4.71611 -9.56191,10.04303 -13.78125,16 -4.96446,6.20536 -7.43773,13.40286 -7.4375,21.59375 -2.3e-4,7.94282 2.47304,14.53762 7.4375,19.75 4.21934,4.96427 8.34087,9.30812 12.3125,13.03125 l 27.53125,21.21875 c 17.12627,13.15519 32.15521,27.67697 45.0625,43.562495 12.16201,16.13368 18.47198,37.21901 18.96875,63.28125 -3.5e-4,36.9833296 -16.74183,69.76806 -50.25,98.3125 -27.45359,23.33521 -64.52383,37.761865 -111.1875,43.281255 32.28769,11.07816 66.92363,17.09375 102.96875,17.09375 175.15316,0 317.15625,-142.003096 317.15625,-317.15625 0,-175.15317 -142.00309,-317.12501 -317.15625,-317.12501 z m -130.65625,63.8125 c -21.34629,0.49674 -39.10208,8.80409 -53.25,24.9375 -11.91423,16.87864 -17.62151,35.74427 -17.125,56.59375 -9e-5,27.55166 7.95814,56.24611 23.84375,86.03126 7.69443,13.89996 17.61878,25.66364 29.78125,35.34375 12.16219,9.68034 26.05003,14.53135 41.6875,14.53125 20.84953,-0.74453 38.22496,-7.94203 52.125,-21.59375 8.68715,-9.6801 14.26764,-19.60445 16.75,-29.78125 1.48901,-10.17649 2.24975,-18.73742 2.25,-25.6875 -2.5e-4,-30.03334 -7.95848,-60.31355 -23.84375,-90.84376 -7.44656,-14.64417 -17.24412,-26.56589 -29.40625,-35.75 -12.41074,-8.68707 -26.67895,-13.28451 -42.8125,-13.78125 z m -126.09375,67.1875 c -37.962192,52.27839 -60.406252,116.5753 -60.406252,186.12501 0,48.50053 10.91128,94.458185 30.375002,135.562495 8.93216,-13.04189 22.12438,-24.75319 39.59375,-35.15625 24.82105,-14.148044 50.88418,-23.596495 78.1875,-28.312495 27.05487,-3.97138 49.50363,-6.19108 67.375,-6.6875 -5.70904,-7.19811 -10.78237,-14.90277 -15.25,-23.09375 -5.2126,-7.94272 -7.81266,-17.48671 -7.8125,-28.65625 -1.6e-4,-6.70164 0.9829,-12.28213 2.96875,-16.75 1.73731,-4.71594 3.35431,-9.05979 4.84375,-13.03125 -8.68755,0.99293 -16.86811,1.46883 -24.5625,1.46875 -40.70673,-0.49634 -71.74767,-13.27433 -93.09375,-38.34375 -22.33903,-23.3317 -33.50002,-50.50469 -33.5,-81.53125 -1e-5,-18.00354 3.77857,-35.19376 11.28125,-51.59376 z m 394,43.68751 12.34375,0.0312 c 7.86537,0.029 14.15402,6.38463 14.125,14.25 l -0.25,67.34375 65.21875,0 c 7.86543,0 14.1875,6.32207 14.1875,14.1875 l 0,12.34375 c 0,7.86543 -6.32207,14.1875 -14.1875,14.1875 l -65.34375,0 -0.25,64.96875 c -0.029,7.86537 -6.38463,14.15402 -14.25,14.125 l -12.34375,-0.0312 c -7.86537,-0.029 -14.18527,-6.38463 -14.15625,-14.25 l 0.25,-64.8125 -66.90625,0 c -7.86543,0 -14.21875,-6.32207 -14.21875,-14.1875 l 0,-12.34375 c 0,-7.86543 6.35332,-14.1875 14.21875,-14.1875 l 67.0625,0 0.25,-67.46875 c 0.029,-7.86537 6.38463,-14.18527 14.25,-14.15625 z m -234.8125,228.874999 c -5.30558,-1e-5 -14.11993,0.539286 -26.40625,1.656246 -16.13387,2.23388 -32.62177,5.84825 -49.5,10.8125 -3.97149,1.48923 -9.55198,3.70893 -16.75,6.6875 -7.19821,3.2267 -14.5225,7.82414 -21.96875,13.78125 -7.19819,6.20522 -13.28584,13.90987 -18.25,23.09375 -5.70891,9.68015 -8.56255,21.34829 -8.5625,34.9999993 -5e-5,26.8066707 12.39757,48.9063107 37.21875,66.2812507 23.57995,17.37459 55.85752,26.28462 96.8125,26.78125 36.73503,-0.49663 64.79553,-8.4236 84.15625,-23.8125 18.86376,-15.14104 28.28095,-34.64063 28.28125,-58.4687507 -3e-4,-19.3605693 -6.43706,-36.2288393 -19.34375,-50.6249993 -13.65187,-13.65167 -35.02204,-30.39315 -64.0625,-50.25 -4.96443,-0.49644 -10.7985,-0.75002 -17.5,-0.75 -0.99289,-0.12411 -2.35647,-0.187496 -4.125,-0.187496 z"
       id="path2985-6"
       inkscape:connector-curvature="0" />
  </g>
</svg>
