<?xml version="1.0" encoding="UTF-8" standalone="no"?>
<!-- Created with Inkscape (http://www.inkscape.org/) -->

<svg
   xmlns:dc="http://purl.org/dc/elements/1.1/"
   xmlns:cc="http://creativecommons.org/ns#"
   xmlns:rdf="http://www.w3.org/1999/02/22-rdf-syntax-ns#"
   xmlns:svg="http://www.w3.org/2000/svg"
   xmlns="http://www.w3.org/2000/svg"
   xmlns:sodipodi="http://sodipodi.sourceforge.net/DTD/sodipodi-0.dtd"
   xmlns:inkscape="http://www.inkscape.org/namespaces/inkscape"
   width="722.84375"
   height="1445.6801"
   id="svg2"
   version="1.1"
   inkscape:version="0.48.3.1 r9886"
   sodipodi:docname="rss.svg">
  <defs
     id="defs4" />
  <sodipodi:namedview
     id="base"
     pagecolor="#ffffff"
     bordercolor="#666666"
     borderopacity="1.0"
     inkscape:pageopacity="0.0"
     inkscape:pageshadow="2"
     inkscape:zoom="0.5"
     inkscape:cx="-249.66365"
     inkscape:cy="589.46122"
     inkscape:document-units="px"
     inkscape:current-layer="layer1"
     showgrid="false"
     fit-margin-top="0"
     fit-margin-left="0"
     fit-margin-right="0"
     fit-margin-bottom="0"
     inkscape:window-width="1024"
     inkscape:window-height="718"
     inkscape:window-x="-2"
     inkscape:window-y="-3"
     inkscape:window-maximized="1" />
  <metadata
     id="metadata7">
    <rdf:RDF>
      <cc:Work
         rdf:about="">
        <dc:format>image/svg+xml</dc:format>
        <dc:type
           rdf:resource="http://purl.org/dc/dcmitype/StillImage" />
        <dc:title />
      </cc:Work>
    </rdf:RDF>
  </metadata>
  <g
     inkscape:label="Layer 1"
     inkscape:groupmode="layer"
     id="layer1"
     transform="translate(-13.4375,527.89875)">
    <path
       style="fill:#00407a;fill-opacity:1;stroke:none"
       d="m 374.84375,194.9375 c -199.61148,0 -361.40625,161.82602 -361.40625,361.4375 0,199.61148 161.79477,361.40625 361.40625,361.40625 199.61148,0 361.4375,-161.79477 361.4375,-361.40625 0,-199.61148 -161.82602,-361.4375 -361.4375,-361.4375 z M 195.28125,315.125 c 225.42183,15.33515 405.57223,195.48316 420.90625,420.90625 l -99.6875,0 C 502.43445,564.44628 366.42067,427.39524 195.28125,411.78125 l 0,-96.65625 z M 192.84375,461 c 153.56463,3.94466 277.46403,127.01381 282.84375,280.21875 l -89.25,0 C 381.99908,637.04331 297.46558,553.6476 192.84375,550.96875 l 0,-89.96875 z m 70.96875,148.03125 c 36.31174,0 65.75,29.40701 65.75,65.71875 0,36.31174 -29.43826,65.78125 -65.75,65.78125 -36.31173,0 -65.75,-29.46951 -65.75,-65.78125 0,-36.31174 29.43827,-65.71875 65.75,-65.71875 z"
       id="path2985"
       inkscape:connector-curvature="0" />
    <path
       style="fill:#0068c6;fill-opacity:1;stroke:none"
       d="m 374.91765,-527.85345 c -199.61148,0 -361.40625,161.82603 -361.40625,361.43751 0,199.611476 161.79477,361.40625 361.40625,361.40625 199.61148,0 361.4375,-161.794774 361.4375,-361.40625 0,-199.61148 -161.82602,-361.43751 -361.4375,-361.43751 z m -179.5625,120.1875 c 225.42183,15.33515 405.57223,195.48317 420.90625,420.906256 l -99.6875,0 C 502.50835,-158.34466 366.49457,-295.3957 195.35515,-311.00969 l 0,-96.65626 z m -2.4375,145.87501 c 153.56463,3.94466 277.46403,127.01381 282.84375,280.218746 l -89.25,0 C 382.07298,-85.747634 297.53948,-169.14334 192.91765,-171.82219 l 0,-89.96875 z m 70.96875,148.03125 c 36.31174,0 65.75,29.407006 65.75,65.718746 0,36.31174 -29.43826,65.78125 -65.75,65.78125 -36.31173,0 -65.75,-29.46951 -65.75,-65.78125 0,-36.31174 29.43827,-65.718746 65.75,-65.718746 z"
       id="path2985-5"
       inkscape:connector-curvature="0" />
  </g>
</svg>
