<?xml version="1.0" encoding="UTF-8" standalone="no"?>
<svg
   xmlns:dc="http://purl.org/dc/elements/1.1/"
   xmlns:cc="http://creativecommons.org/ns#"
   xmlns:rdf="http://www.w3.org/1999/02/22-rdf-syntax-ns#"
   xmlns:svg="http://www.w3.org/2000/svg"
   xmlns="http://www.w3.org/2000/svg"
   xmlns:sodipodi="http://sodipodi.sourceforge.net/DTD/sodipodi-0.dtd"
   xmlns:inkscape="http://www.inkscape.org/namespaces/inkscape"
   version="1.1"
   id="twitter-bird"
   x="0px"
   y="0px"
   width="300.77521"
   height="601.56"
   viewBox="0 0 300.77521 601.56"
   enable-background="new 0 0 400 400"
   xml:space="preserve"
   inkscape:version="0.48.3.1 r9886"
   sodipodi:docname="twitter.svg"><metadata
   id="metadata3072"><rdf:RDF><cc:Work
       rdf:about=""><dc:format>image/svg+xml</dc:format><dc:type
         rdf:resource="http://purl.org/dc/dcmitype/StillImage" /><dc:title /></cc:Work></rdf:RDF></metadata><defs
   id="defs3070" /><sodipodi:namedview
   pagecolor="#ffffff"
   bordercolor="#666666"
   borderopacity="1"
   objecttolerance="10"
   gridtolerance="10"
   guidetolerance="10"
   inkscape:pageopacity="0"
   inkscape:pageshadow="2"
   inkscape:window-width="1024"
   inkscape:window-height="718"
   id="namedview3068"
   showgrid="false"
   fit-margin-top="0"
   fit-margin-left="0"
   fit-margin-right="0"
   fit-margin-bottom="0"
   inkscape:zoom="1"
   inkscape:cx="51.913526"
   inkscape:cy="296.419"
   inkscape:window-x="-2"
   inkscape:window-y="-3"
   inkscape:window-maximized="1"
   inkscape:current-layer="twitter-bird" />

<path
   style="fill:#0068c6;fill-opacity:1;stroke:none"
   d="m 150.07905,-0.00440512 c -83.056777,0 -150.37499818,67.31823012 -150.37499818,150.37500512 0,83.05678 67.31822118,150.40625 150.37499818,150.40625 83.05678,0 150.40625,-67.34947 150.40625,-150.40625 0,-83.056775 -67.34947,-150.37500512 -150.40625,-150.37500512 z M 195.1103,74.870595 c 0.18496,3.94312 -8.21875,7.65625 -8.21875,7.65625 0,0 15.07066,-6.76041 17.78125,-3.125 3.38878,4.99068 -18.28125,9.40625 -18.28125,9.40625 40.54207,1.4786 47.1875,42.250005 47.1875,42.250005 0,0 14.13347,4.21083 25.53125,-0.71875 -4.25084,11.39833 -23.5625,11.9375 -23.5625,11.9375 0,0 9.80525,4.62723 24.53125,2.59375 -10.78179,11.82936 -26,9.25 -26,9.25 -14.17167,54.46658 -67.1623,70.98562 -104.5,72.09375 -57.917008,0.98646 -86.374998,-42.15625 -86.374998,-42.15625 0,0 37.41447,34.77473 79.968748,-3.34375 -13.22612,1.23254 -23.746358,-10.18358 -7.5625,-18.5625 -19.880368,1.23198 -26.187498,-13.625 -26.187498,-13.625 0,0 3.69288,-5.58971 14.906248,-6 -24.193418,-5.42226 -24.187498,-22.09375 -24.187498,-22.09375 0,0 4.17165,-1.06129 12.46875,-1.71875 -20.29123,-11.50091 -17.75,-27.187505 -17.75,-27.187505 0,0 38.036568,14.373425 58.656248,26.531255 8.54371,6.16156 13.6875,11.84375 13.6875,11.84375 0,0 13.75024,-41.932675 34,-53.187505 -0.0409,1.6019 -2.40625,5.4375 -2.40625,5.4375 0,0 7.80972,-6.29588 16.3125,-7.28125 z"
   id="path3842"
   inkscape:connector-curvature="0" /><path
   style="fill:#00407a;fill-opacity:1;stroke:none"
   d="m 150.42001,300.70139 c -83.056784,0 -150.37500617,67.31823 -150.37500617,150.375 0,83.05678 67.31822217,150.40625 150.37500617,150.40625 83.05678,0 150.40625,-67.34947 150.40625,-150.40625 0,-83.05677 -67.34947,-150.375 -150.40625,-150.375 z m 45.03125,74.875 c 0.18496,3.94312 -8.21875,7.65625 -8.21875,7.65625 0,0 15.07066,-6.76041 17.78125,-3.125 3.38878,4.99068 -18.28125,9.40625 -18.28125,9.40625 40.54207,1.4786 47.1875,42.25 47.1875,42.25 0,0 14.13347,4.21083 25.53125,-0.71875 -4.25084,11.39833 -23.5625,11.9375 -23.5625,11.9375 0,0 9.80525,4.62723 24.53125,2.59375 -10.78179,11.82936 -26,9.25 -26,9.25 -14.17167,54.46658 -67.1623,70.98562 -104.5,72.09375 -57.917015,0.98646 -86.375006,-42.15625 -86.375006,-42.15625 0,0 37.414471,34.77473 79.968756,-3.34375 -13.22612,1.23254 -23.746356,-10.18358 -7.5625,-18.5625 -19.880375,1.23198 -26.187505,-13.625 -26.187505,-13.625 0,0 3.69288,-5.58971 14.906255,-6 -24.193425,-5.42226 -24.187505,-22.09375 -24.187505,-22.09375 0,0 4.17165,-1.06129 12.46875,-1.71875 -20.29123,-11.50091 -17.75,-27.1875 -17.75,-27.1875 0,0 38.036575,14.37342 58.656255,26.53125 8.54371,6.16156 13.6875,11.84375 13.6875,11.84375 0,0 13.75024,-41.93267 34,-53.1875 -0.0409,1.6019 -2.40625,5.4375 -2.40625,5.4375 0,0 7.80972,-6.29588 16.3125,-7.28125 z"
   id="path3842-3"
   inkscape:connector-curvature="0" /></svg>